# xmcd
#
# Track frame offsets:
#	150
#	15147
#	28707
#	45318
#	62210
#	77441
#	95153
#	109577
#	120598
#	135922
#	153947
#	166919
#	183053
#	196205
#	210087
#	230935
#
# Disc length: 3299 seconds
# Revision: 0
# Processed by: cddbd v1.5.2PL0 Copyright (c) Steve Scherf et al.
# Submitted via: dBpowerAMP V12.0
#
DISCID=b70ce110
DTITLE=Various Artist - O Melhor Do Sertanejo
DYEAR=2014
DGENRE=Country
TTITLE0=Vitor e Leo - Borboletas
TTITLE1=Roberta Miranda - Chora me liga
TTITLE2=Zezé Di Camargo e Luciano - Mexe que é bom
TTITLE3=Bruno e Marrone - Doideira
TTITLE4=Marco e Mário - Flecha do culpido
TTITLE5=Leandro e Leonardo - Um sonhador
TTITLE6=Zé Henrique e Gabriel - Solidão dando risada
TTITLE7=Sertanejo 3 - Vá com deus
TTITLE8=Gian e Giovani - 1 2 3
TTITLE9=Vitor e Leo - Fada
TTITLE10=João Bosco e Vinícius - Sem esse coração
TTITLE11=Leonardo - Fantasias
TTITLE12=Marco e Mário - Marvada Pinga
TTITLE13=Zé Henrique e Gabriel - O que combina comigo é você
TTITLE14=Chrystian e Ralf - Yolanda
TTITLE15=Janaynna - Temporal de Amor
EXTD=
EXTT0=
EXTT1=
EXTT2=
EXTT3=
EXTT4=
EXTT5=
EXTT6=
EXTT7=
EXTT8=
EXTT9=
EXTT10=
EXTT11=
EXTT12=
EXTT13=
EXTT14=
EXTT15=
PLAYORDER=
